<svg xmlns="http://www.w3.org/2000/svg" xmlns:xlink="http://www.w3.org/1999/xlink" viewBox="0 0 429.08 443.33"><defs><style>.cls-1{isolation:isolate;}.cls-2{fill:#333;}.cls-3{fill:#fff;}.cls-4{mix-blend-mode:multiply;fill:url(#radial-gradient);}</style><radialGradient id="radial-gradient" cx="196.88" cy="421.59" r="240.3" gradientTransform="translate(63.06 393.37) scale(0.77 0.07)" gradientUnits="userSpaceOnUse"><stop offset="0" stop-color="#303030"/><stop offset="0.27" stop-color="#505050" stop-opacity="0.85"/><stop offset="0.68" stop-color="#a7a7a7" stop-opacity="0.43"/><stop offset="1" stop-color="#fff" stop-opacity="0"/></radialGradient></defs><g class="cls-1"><g id="Objects"><path class="cls-2" d="M248.73,379.78H354.57c11.95,0,11.41-11.95,11.41-11.95V204.39L216.72,71.72,58.32,204.39V370.55s-.32,9.61,9,9.61c11.69,0,108.16-.14,108.16-.14ZM58.32,370.55"/><path class="cls-2" d="M0,192.06s13.42,24.81,42.79,0L218,43.81,382.42,191.13c34,24.49,46.66,0,46.66,0L218,0Zm0,0"/><path class="cls-2" d="M378.37,43.41H336.13l.14,51.27,42.1,35.73Zm0,0"/><path class="cls-3" d="M165.29,230.3a17.89,17.89,0,1,0-17.88-17.89A17.89,17.89,0,0,0,165.29,230.3Z"/><path class="cls-3" d="M276.39,284.1a11.34,11.34,0,1,0-8.24-3.55A11.45,11.45,0,0,0,276.39,284.1Z"/><path class="cls-3" d="M296.38,306c-1.86-8.13-6.65-16.11-14.49-19.85A12.08,12.08,0,0,0,268.47,288a52.32,52.32,0,0,1-6.61,4.64,29.38,29.38,0,0,1-3.87,2,11.66,11.66,0,0,1-1.92.63,3.19,3.19,0,0,1-.92.06,5.32,5.32,0,0,0,.34-1.79c0-7.3-.06-8.17-.14-9.54a75.45,75.45,0,0,0-5.75-26.13c-3.48-7.9-9-15.18-16.59-19.58-3.38-2-8.43-3.73-12-3.69a21.13,21.13,0,0,0-10.11,2.59,83.42,83.42,0,0,0-9.78,6,48.41,48.41,0,0,0-8,7l-.13,0s-1-2-1.64-2.89a39.34,39.34,0,0,0-3.83-5.19,35.05,35.05,0,0,0-4.27-4.13,32.21,32.21,0,0,0-7.91-4.8,23.89,23.89,0,0,0-2.76-1,31.44,31.44,0,0,0-13.57-.25c-.33.07-.65.14-1,.25a23.32,23.32,0,0,0-2.77,1,32.21,32.21,0,0,0-7.91,4.8,35.05,35.05,0,0,0-4.27,4.13,39.34,39.34,0,0,0-3.83,5.19,47.72,47.72,0,0,0-5.3,12.24A67.5,67.5,0,0,0,131.66,272a92,92,0,0,0-.21,10.69c.11,3.1.34,5.64.52,7.42s.31,2.78.31,2.78v.07a5.32,5.32,0,0,0,10.58-.95s0-.93-.07-2.56,0-4,.09-6.72a77.4,77.4,0,0,1,1-9.25,52.67,52.67,0,0,1,2.59-9.9,36.38,36.38,0,0,1,2.34-5.08l-3.92,32.33a21.56,21.56,0,0,0,0,4.95,20.48,20.48,0,0,0,3.41,9.09L151,362.92a6.2,6.2,0,0,0,12.39,0l2-43.88,2,43.89a6.2,6.2,0,0,0,12.38,0l2.66-58.29a20.51,20.51,0,0,0,3.27-13.82l-3.87-31.94a37.25,37.25,0,0,1,2.12,4.69,52.67,52.67,0,0,1,2.59,9.9,79.53,79.53,0,0,1,1,9.25c.13,2.76.12,5.09.09,6.72s-.07,2.56-.07,2.56a5.31,5.31,0,0,0,10.58.92v0s.13-1,.31-2.78.41-4.32.52-7.42q0-.53,0-1.08c0-.35,0-.69-.05-1,.62.36,1.25.71,1.87,1l-9.35,42.66a3,3,0,0,0,.62,2.45,2.94,2.94,0,0,0,2.28,1.07h9.55l1.83,36.84a6.37,6.37,0,0,0,12.7.42c0-.13,0-.26,0-.39l2-36.87h1l1.84,36.84A6.37,6.37,0,0,0,236,365l0-.39,2-36.87h9.25a2.95,2.95,0,0,0,2.89-3.52l-10.88-51.34v-4.15c3.3,7.83,4.57,16.25,5.27,24.67,0,.19,0,.37.05.56a5.52,5.52,0,0,0,3.73,4.7h0a7.74,7.74,0,0,0,2.48,2.76,9,9,0,0,0,4.54,1.38,23.24,23.24,0,0,0,9.48-2.06l.18,10.4-5.72,26a2,2,0,0,0,2,2.43h4.61l1.22,25.59a3.93,3.93,0,0,0,7.85,0l1.33-25.6h.41l1.24,25.59a3.92,3.92,0,0,0,7.84,0l1.33-25.6H292a2,2,0,0,0,1.56-.74,2,2,0,0,0,.43-1.68l-5.78-26,.12-3.93A50.51,50.51,0,0,1,291,321a3.37,3.37,0,0,0,6.73-.25A63.44,63.44,0,0,0,296.38,306Zm-58.91-24.49c.44-1,.88-1.94,0,0s-.45,1,0,0a7.78,7.78,0,0,1-10.29,3.85L215.7,280.2a4.34,4.34,0,0,0-2.71-7.43,10.36,10.36,0,0,0-1.84.13c-.74.06-1.48.09-2.22.1a7.58,7.58,0,0,1,0-1.43,7.6,7.6,0,0,1-10.38-9.91l.2-.46a7.61,7.61,0,0,1,14.43,1.93,7.81,7.81,0,0,1,.06,2,7.79,7.79,0,0,1,6.66-.11l13.75,6.26A7.76,7.76,0,0,1,237.47,281.55Z"/><path class="cls-3" d="M218.57,233.62A18.4,18.4,0,1,0,204.18,223,18.58,18.58,0,0,0,218.57,233.62Z"/><ellipse class="cls-4" cx="214.54" cy="421.59" rx="207.06" ry="21.74"/></g></g></svg>